# AST/ASF file generated using VICON BodyLanguage
# -----------------------------------------------
:version 1.10
:name VICON
:units
  mass 1.0
  length 0.45
  angle deg
:documentation
   .ast/.asf automatically generated from VICON data using
   VICON BodyBuilder and BodyLanguage model FoxedUp or BRILLIANT.MOD
:root
   order TX TY TZ RX RY RZ
   axis XYZ
   position 0 0 0  
   orientation 0 0 0 
:bonedata
  begin
     id 1 
     name lhipjoint
     direction 0.702568 -0.596508 0.388042 
     length 2.56661 
     axis 0 0 0  XYZ
  end
  begin
     id 2 
     name lfemur
     direction 0.34202 -0.939693 0  
     length 6.58374  
     axis 0 0 20  XYZ
    dof rx ry rz
    limits (-160.0 20.0)
           (-70.0 70.0)
           (-60.0 70.0)
  end
  begin
     id 3 
     name ltibia
     direction 0.34202 -0.939693 0   
     length 6.62538   
     axis 0 0 20   XYZ
    dof rx
    limits (-10.0 170.0)
  end
  begin
     id 4 
     name lfoot
     direction 0.10455 -0.287249 0.952133   
     length 2.26699   
     axis -90 7.62852e-016 20   XYZ
    dof rx rz
    limits (-45.0 90.0)
           (-70.0 20.0)
  end
  begin
     id 5 
     name ltoes
     direction 1.53572e-011 -4.22322e-011 1   
     length 1.12949   
     axis -90 7.62852e-016 20   XYZ
    dof rx
    limits (-90.0 20.0)
  end
  begin
     id 6 
     name rhipjoint
     direction -0.728055 -0.574632 0.373811   
     length 2.66432  
     axis 0 0 0  XYZ 
  end
  begin
     id 7 
     name rfemur
     direction -0.34202 -0.939693 0   
     length 6.66732   
     axis 0 0 -20   XYZ
    dof rx ry rz
    limits (-160.0 20.0)
           (-70.0 70.0)
           (-70.0 60.0)
  end
  begin
     id 8 
     name rtibia
     direction -0.34202 -0.939693 0   
     length 6.59288   
     axis 0 0 -20   XYZ
    dof rx
    limits (-10.0 170.0)
 end
 begin
     id 9 
     name rfoot
     direction -0.119193 -0.327479 0.93731   
     length 2.38061  
     axis -90 -7.62852e-016 -20   XYZ
    dof rx rz
    limits (-45.0 90.0)
           (-20.0 70.0)
  end
  begin
     id 10 
     name rtoes
     direction -1.53547e-011 -4.21827e-011 1   
     length 1.17899   
     axis -90 -7.62852e-016 -20   XYZ
    dof rx
    limits (-90.0 20.0)
  end
  begin
     id 11 
     name lowerback
     direction -0.000416114 0.999912 -0.0132284   
     length 2.12109   
     axis 0 0 0   XYZ
    dof rx ry rz
    limits (-20.0 45.0)
           (-30.0 30.0)
           (-30.0 30.0)
  end
  begin
     id 12 
     name upperback
     direction -0.00136371 0.99809 0.0617608   
     length 2.10067   
     axis 0 0 0   XYZ
    dof rx ry rz
    limits (-20.0 45.0)
           (-30.0 30.0)
           (-30.0 30.0)
  end
  begin
     id 13 
     name thorax
     direction -3.43026e-005 0.997776 0.0666515   
     length 2.10618   
     axis 0 0 0   XYZ
    dof rx ry rz
    limits (-20.0 45.0)
           (-30.0 30.0)
           (-30.0 30.0)
  end
  begin
     id 14 
     name lowerneck
     direction 0.0398646 0.998418 0.0396592   
     length 1.83817   
     axis 0 0 0   XYZ
    dof rx ry rz
    limits (-20.0 45.0)
           (-30.0 30.0)
           (-30.0 30.0)
  end
  begin
     id 15 
     name upperneck
     direction -0.0367268 0.961527 -0.272244   
     length 1.81975   
     axis 0 0 0   XYZ
    dof rx ry rz
    limits (-20.0 45.0)
           (-30.0 30.0)
           (-30.0 30.0)
  end
  begin
     id 16
     name head
     direction -0.0182665 0.99536 -0.0944669  
     length 1.86026  
     axis 0 0 0   XYZ
    dof rx ry rz
    limits (-20.0 45.0)
           (-30.0 30.0)
           (-30.0 30.0)
  end
  begin
     id 17 
     name lclavicle
     direction 0.924239 0.361045 0.124212  
     length 3.26878  
     axis 0 0 0   XYZ
    dof ry rz
    limits (-20.0 10.0)
           (0.0 20.0)
  end
  begin
     id 18 
     name lhumerus
     direction 1 -4.48968e-011 -2.56583e-027   
     length 4.58538   
     axis 180 -30 -90   XYZ
    dof rx ry rz
    limits (-60.0 90.0)
           (-90.0 90.0)
           (-90.0 90.0)
  end
  begin
     id 19
     name lradius
     direction 1 -4.4898e-011 -5.50375e-027   
     length 2.68935   
     axis 180 -30 -90   XYZ
    dof rx
    limits (-10.0 170.0)
  end
  begin
     id 20
     name lwrist
     direction 1 -4.48939e-011 -1.48955e-026   
     length 1.34468   
     axis 9.0955e-015 90 90   XYZ
    dof ry
    limits (-180.0 0.0)
 end
  begin
     id 21 
     name lhand
     direction 1 -4.48936e-011 -2.97907e-026   
     length 0.585058   
     axis 1.90115e-014 90 90   XYZ
    dof rx rz
    limits (-90.0 90.0)
           (-45.0 45.0)
  end
  begin
     id 22 
     name lfingers
     direction 1 -4.49082e-011 -5.96235e-026   
     length 0.471689   
     axis 3.80223e-014 90 90   XYZ
    dof rx
    limits (0.0 90.0)
  end
  begin
     id 23
     name lthumb
     direction 0.707107 -6.3489e-011 0.707107   
     length 0.677253   
     axis -90 45 -3.84942e-014   XYZ
    dof rx rz
    limits (-45.0 45.0)
           (-45.0 45.0)
  end
  begin
     id 24 
     name rclavicle
     direction -0.923098 0.371783 0.0983239   
     length 3.19656  
     axis 0 0 0   XYZ 
    dof ry rz
    limits (-10.0 20.0)
           (-20.0 0.0)
  end
  begin
     id 25 
     name rhumerus
     direction -1 -4.48976e-011 -2.5492e-027  
     length 4.4745   
     axis 180 30 90   XYZ
    dof rx ry rz
    limits (-90.0 60.0)
           (-90.0 90.0)
           (-90.0 90.0)
  end
  begin
     id 26 
     name rradius
     direction -1 -4.48941e-011 -4.36555e-027   
     length 2.93896   
     axis 180 30 90   XYZ
    dof rx
    limits (-10.0 170.0)
  end
  begin
     id 27 
     name rwrist
     direction -1 -4.49044e-011 -1.49032e-026   
     length 1.46948   
     axis 9.0955e-015 -90 -90   XYZ
    dof ry
    limits (-180.0 0.0)
  end
  begin
     id 28
     name rhand
     direction -1 -4.48826e-011 -2.97749e-026   
     length 0.405092   
     axis 1.90115e-014 -90 -90   XYZ
    dof rx rz
    limits (-90.0 90.0)
           (-45.0 45.0)
  end
  begin
     id 29
     name rfingers
     direction -1 -4.49209e-011 -5.96602e-026   
     length 0.326596   
     axis 3.80223e-014 -90 -90   XYZ
    dof rx
    limits (0.0 90.0)
  end
  begin
     id 30
     name rthumb
     direction -0.707107 -6.34776e-011 0.707107   
     length 0.468928   
     axis -90 -45 3.84942e-014   XYZ
    dof rx rz
    limits (-45.0 45.0)
           (-45.0 45.0)
  end
:hierarchy
  begin
    root lhipjoint rhipjoint lowerback
    lhipjoint lfemur
    lfemur ltibia
    ltibia lfoot
    lfoot ltoes
    rhipjoint rfemur
    rfemur rtibia
    rtibia rfoot
    rfoot rtoes
    lowerback upperback
    upperback thorax
    thorax lowerneck lclavicle rclavicle
    lowerneck upperneck
    upperneck head
    lclavicle lhumerus
    lhumerus lradius
    lradius lwrist
    lwrist lhand lthumb
    lhand lfingers
    rclavicle rhumerus
    rhumerus rradius
    rradius rwrist
    rwrist rhand rthumb
    rhand rfingers
  end

#!OML:ASF H:\Punching\Project 1\Capture day 1\Session 1\female.ASF
:FULLY-SPECIFIED
:DEGREES
249
root 0.830947 15.5718 8.21696 11.4058 13.2692 -0.0407726
lowerback -1.08534 -0.0229629 -0.331923
upperback -5.85119 -0.0686128 -1.09997
thorax -5.44041 -0.0405436 -0.951874
lowerneck -11.2848 -1.70983 7.29487
upperneck 33.6016 -5.16983 2.59545
head 13.0808 -0.960499 -0.975633
rclavicle -2.54072e-014 4.37326e-015
rhumerus 26.7123 19.4764 -44.5355
rradius 92.009
rwrist -34.9882
rhand -1.01727 -11.809
rfingers 7.12502
rthumb 24.6157 -40.2462
lclavicle -2.54072e-014 4.37326e-015
lhumerus -22.6179 -39.4064 91.4337
lradius 118.897
lwrist 3.62184
lhand -19.4077 11.5274
lfingers 7.12502
lthumb 6.9116 41.3946
rfemur -31.3369 11.095 -2.2379
rtibia 20.0647
rfoot 6.04365 -28.4068
rtoes -6.14913
lfemur -6.78761 -9.0969 -12.9946
ltibia 15.1523
lfoot -17.129 14.7157
ltoes -7.97249
250
root 0.920866 15.5855 8.13897 11.601 12.7364 0.00194119
lowerback -1.29394 0.128534 -0.366062
upperback -5.86316 0.13838 -1.03706
thorax -5.33103 0.0660708 -0.874275
lowerneck -11.352 -1.73345 7.21039
upperneck 33.4754 -5.13119 2.43922
head 13.0342 -0.980686 -1.01732
rclavicle -9.12546e-015 -6.36111e-015
rhumerus 24.6677 20.5673 -46.0857
rradius 92.4647
rwrist -35.8864
rhand -1.21589 -12.1821
rfingers 7.12502
rthumb 24.4253 -40.6451
lclavicle -9.12546e-015 -6.36111e-015
lhumerus -22.4869 -39.7254 91.6409
lradius 118.241
lwrist 3.80722
lhand -19.6804 11.6937
lfingers 7.12502
lthumb 6.64836 41.5693
rfemur -31.5305 13.2562 -3.49959
rtibia 19.6026
rfoot 4.77418 -30.2891
rtoes -5.70316
lfemur -7.18564 -8.84027 -13.4877
ltibia 15.3429
lfoot -17.1282 14.8362
ltoes -7.52315
251
root 1.00633 15.6032 8.06463 11.7735 12.2574 0.0537656
lowerback -1.48596 0.264814 -0.426994
upperback -5.87207 0.324108 -0.980507
thorax -5.22913 0.163194 -0.78656
lowerneck -11.4017 -1.75683 7.13145
upperneck 33.3416 -5.09253 2.28748
head 12.981 -1.00004 -1.05761
rclavicle -6.38596e-015 7.55382e-015
rhumerus 22.5038 21.6478 -47.7257
rradius 92.8635
rwrist -36.5253
rhand -1.38544 -12.5687
rfingers 7.12502
rthumb 24.2627 -41.0535
lclavicle -6.38596e-015 7.55382e-015
lhumerus -22.4002 -40.0288 91.8322
lradius 117.508
lwrist 3.99709
lhand -19.9323 11.8004
lfingers 7.12502
lthumb 6.40516 41.6836
rfemur -31.6891 14.6165 -4.30622
rtibia 19.4775
rfoot 3.48304 -31.2474
rtoes -5.70453
lfemur -7.59139 -8.62182 -13.9695
ltibia 15.5645
lfoot -17.1141 14.9531
ltoes -7.08198
252
root 1.08716 15.6199 7.99333 11.916 11.8342 0.0965021
lowerback -1.62927 0.378157 -0.494636
upperback -5.89936 0.478575 -0.921483
thorax -5.17566 0.245068 -0.691312
lowerneck -11.4031 -1.7752 7.05353
upperneck 33.2133 -5.04507 2.14501
head 12.9209 -1.01444 -1.09223
rclavicle 2.53078e-014 1.23246e-014
rhumerus 20.1988 22.756 -49.4735
rradius 93.2052
rwrist -36.8651
rhand -1.56538 -12.9159
rfingers 7.12502
rthumb 24.0902 -41.4236
lclavicle 2.53078e-014 1.23246e-014
lhumerus -22.4234 -40.2881 92.0423
lradius 116.694
lwrist 4.13171
lhand -20.1546 11.8394
lfingers 7.12502
lthumb 6.1906 41.729
rfemur -31.7309 15.0028 -4.53644
rtibia 19.6027
rfoot 2.63252 -31.194
rtoes -6.14952
lfemur -7.96639 -8.45149 -14.4177
ltibia 15.751
lfoot -17.057 15.0706
ltoes -6.6306
253
root 1.16394 15.6359 7.92421 12.0206 11.459 0.120455
lowerback -1.72294 0.464051 -0.559447
upperback -5.92715 0.5963 -0.850631
thorax -5.15205 0.308753 -0.584418
lowerneck -11.396 -1.7789 6.97823
upperneck 33.097 -4.97719 2.00249
head 12.865 -1.01894 -1.12429
rclavicle -2.74261e-015 4.37326e-015
rhumerus 17.7954 23.8828 -51.3135
rradius 93.474
rwrist -36.9036
rhand -1.7872 -13.1921
rfingers 7.12502
rthumb 23.8775 -41.7279
lclavicle -2.74261e-015 4.37326e-015
lhumerus -22.5057 -40.4514 92.2413
lradius 115.782
lwrist 4.22052
lhand -20.3082 11.7425
lfingers 7.12502
lthumb 6.04228 41.6363
rfemur -31.6246 14.5302 -4.22965
rtibia 19.9163
rfoot 2.33086 -30.2967
rtoes -6.82479
lfemur -8.2977 -8.33927 -14.8258
ltibia 15.8947
lfoot -16.9598 15.2059
ltoes -6.15888
254
root 1.23786 15.6559 7.85668 12.0847 11.1163 0.112941
lowerback -1.75872 0.52908 -0.598966
upperback -5.95518 0.686209 -0.768956
thorax -5.16217 0.357621 -0.480179
lowerneck -11.3948 -1.76522 6.91163
upperneck 32.9996 -4.88784 1.85797
head 12.8192 -1.01203 -1.15581
rclavicle -7.00095e-015 5.56597e-015
rhumerus 15.3022 25.0244 -53.227
rradius 93.6621
rwrist -36.7007
rhand -2.05601 -13.3602
rfingers 7.12502
rthumb 23.6197 -41.9294
lclavicle -7.00095e-015 5.56597e-015
lhumerus -22.6582 -40.5347 92.4399
lradius 114.771
lwrist 4.19526
lhand -20.4077 11.5737
lfingers 7.12502
lthumb 5.94625 41.4703
rfemur -31.4026 13.5144 -3.52959
rtibia 20.4024
rfoot 2.44533 -28.8362
rtoes -7.57068
lfemur -8.61812 -8.27985 -15.1881
ltibia 16.0733
lfoot -16.8721 15.3735
ltoes -5.67199
255
root 1.30869 15.6693 7.79072 12.0992 10.7844 0.0700345
lowerback -1.74215 0.583882 -0.599522
upperback -5.96937 0.762749 -0.678709
thorax -5.1875 0.398138 -0.388973
lowerneck -11.4187 -1.73349 6.8549
upperneck 32.9171 -4.77697 1.70853
head 12.7857 -0.993898 -1.18846
rclavicle -3.10912e-014 -1.19271e-014
rhumerus 12.7373 26.1563 -55.1836
rradius 93.7624
rwrist -36.3674
rhand -2.39651 -13.4133
rfingers 7.12502
rthumb 23.293 -42.0243
lclavicle -3.10912e-014 -1.19271e-014
lhumerus -22.8648 -40.5385 92.637
lradius 113.659
lwrist 4.04261
lhand -20.4495 11.3488
lfingers 7.12502
lthumb 5.90582 41.2465
rfemur -31.1016 12.2264 -2.5868
rtibia 21.0284
rfoot 2.86804 -27.0327
rtoes -8.31578
lfemur -8.91903 -8.27286 -15.5001
ltibia 16.3138
lfoot -16.8294 15.5863
ltoes -5.14934
256
root 1.37742 15.6807 7.72618 12.0662 10.4484 -0.0194576
lowerback -1.67182 0.638449 -0.540833
upperback -5.97062 0.839569 -0.582809
thorax -5.22924 0.436044 -0.3257
lowerneck -11.4721 -1.68797 6.81103
upperneck 32.8412 -4.65119 1.55359
head 12.7616 -0.967551 -1.22391
rclavicle 3.83251e-014 -4.17448e-015
rhumerus 10.1144 27.2627 -57.1606
rradius 93.7684
rwrist -35.9944
rhand -2.79668 -13.3957
rfingers 7.12502
rthumb 22.9091 -42.0548
lclavicle 3.83251e-014 -4.17448e-015
lhumerus -23.1377 -40.4769 92.8474
lradius 112.458
lwrist 3.76546
lhand -20.4386 11.1002
lfingers 7.12502
lthumb 5.91638 40.9975
rfemur -30.7321 10.8581 -1.49112
rtibia 21.7489
rfoot 3.29446 -25.0708
rtoes -8.7781
lfemur -9.20832 -8.298 -15.7564
ltibia 16.6328
lfoot -16.8415 15.8439
ltoes -4.60554
